<mxfile host="app.diagrams.net" modified="2024-07-12T10:28:52.936Z" agent="Mozilla/5.0 (Macintosh; Intel Mac OS X 10_15_7) AppleWebKit/537.36 (KHTML, like Gecko) Chrome/124.0.0.0 Whale/3.26.244.21 Safari/537.36" etag="aoQOGJndVgsAPifuluXp" version="24.6.5" type="device">
  <diagram id="C5RBs43oDa-KdzZeNtuy" name="Page-1">
    <mxGraphModel dx="1811" dy="1247" grid="1" gridSize="10" guides="1" tooltips="1" connect="1" arrows="1" fold="1" page="1" pageScale="1" pageWidth="827" pageHeight="1169" math="0" shadow="0">
      <root>
        <mxCell id="WIyWlLk6GJQsqaUBKTNV-0" />
        <mxCell id="WIyWlLk6GJQsqaUBKTNV-1" parent="WIyWlLk6GJQsqaUBKTNV-0" />
        <mxCell id="iU-VrpvZsyPDX8SjkyYA-0" value="시작" style="ellipse;whiteSpace=wrap;html=1;" vertex="1" parent="WIyWlLk6GJQsqaUBKTNV-1">
          <mxGeometry x="220" y="60" width="120" height="80" as="geometry" />
        </mxCell>
        <mxCell id="iU-VrpvZsyPDX8SjkyYA-1" value="&lt;font style=&quot;font-size: 9px;&quot;&gt;길이, 몸통, 토핑,&amp;nbsp;&lt;/font&gt;&lt;div&gt;&lt;font style=&quot;font-size: 9px;&quot;&gt;막대길이 입력 받기&lt;/font&gt;&lt;/div&gt;" style="shape=parallelogram;perimeter=parallelogramPerimeter;whiteSpace=wrap;html=1;fixedSize=1;" vertex="1" parent="WIyWlLk6GJQsqaUBKTNV-1">
          <mxGeometry x="220" y="180" width="120" height="60" as="geometry" />
        </mxCell>
        <mxCell id="iU-VrpvZsyPDX8SjkyYA-6" value="" style="rounded=0;whiteSpace=wrap;html=1;" vertex="1" parent="WIyWlLk6GJQsqaUBKTNV-1">
          <mxGeometry x="52.5" y="287.5" width="455" height="195" as="geometry" />
        </mxCell>
        <mxCell id="iU-VrpvZsyPDX8SjkyYA-13" value="&lt;span style=&quot;font-size: 9px;&quot;&gt;토핑이 존재하는가&lt;/span&gt;" style="rhombus;whiteSpace=wrap;html=1;" vertex="1" parent="WIyWlLk6GJQsqaUBKTNV-1">
          <mxGeometry x="240" y="345" width="80" height="80" as="geometry" />
        </mxCell>
        <mxCell id="iU-VrpvZsyPDX8SjkyYA-14" value="1 to 몸통 길이" style="swimlane;whiteSpace=wrap;html=1;" vertex="1" parent="WIyWlLk6GJQsqaUBKTNV-1">
          <mxGeometry x="70" y="330" width="140" height="110" as="geometry" />
        </mxCell>
        <mxCell id="iU-VrpvZsyPDX8SjkyYA-16" value="&lt;font style=&quot;font-size: 8px;&quot;&gt;&quot;\(topping)\(body)\(topping)&quot;&lt;/font&gt;" style="shape=parallelogram;perimeter=parallelogramPerimeter;whiteSpace=wrap;html=1;fixedSize=1;" vertex="1" parent="WIyWlLk6GJQsqaUBKTNV-1">
          <mxGeometry x="360" y="370" width="130" height="45" as="geometry" />
        </mxCell>
        <mxCell id="iU-VrpvZsyPDX8SjkyYA-18" value="1 to 몸통 길이" style="swimlane;whiteSpace=wrap;html=1;" vertex="1" parent="WIyWlLk6GJQsqaUBKTNV-1">
          <mxGeometry x="355" y="330" width="140" height="110" as="geometry" />
        </mxCell>
        <mxCell id="iU-VrpvZsyPDX8SjkyYA-19" value="&lt;font style=&quot;font-size: 8px;&quot;&gt;&quot;\(body)&quot;&lt;/font&gt;" style="shape=parallelogram;perimeter=parallelogramPerimeter;whiteSpace=wrap;html=1;fixedSize=1;" vertex="1" parent="WIyWlLk6GJQsqaUBKTNV-1">
          <mxGeometry x="75" y="370" width="130" height="45" as="geometry" />
        </mxCell>
        <mxCell id="iU-VrpvZsyPDX8SjkyYA-22" value="" style="endArrow=classic;html=1;rounded=0;exitX=0.5;exitY=1;exitDx=0;exitDy=0;" edge="1" parent="WIyWlLk6GJQsqaUBKTNV-1" source="iU-VrpvZsyPDX8SjkyYA-0">
          <mxGeometry width="50" height="50" relative="1" as="geometry">
            <mxPoint x="240" y="380" as="sourcePoint" />
            <mxPoint x="280" y="180" as="targetPoint" />
          </mxGeometry>
        </mxCell>
        <mxCell id="iU-VrpvZsyPDX8SjkyYA-23" value="" style="endArrow=classic;html=1;rounded=0;exitX=0.5;exitY=1;exitDx=0;exitDy=0;entryX=0.5;entryY=0;entryDx=0;entryDy=0;" edge="1" parent="WIyWlLk6GJQsqaUBKTNV-1" source="iU-VrpvZsyPDX8SjkyYA-1" target="iU-VrpvZsyPDX8SjkyYA-6">
          <mxGeometry width="50" height="50" relative="1" as="geometry">
            <mxPoint x="495" y="186.25" as="sourcePoint" />
            <mxPoint x="490.34000000000003" y="233.75" as="targetPoint" />
          </mxGeometry>
        </mxCell>
        <mxCell id="iU-VrpvZsyPDX8SjkyYA-24" value="makePeperoBody" style="edgeLabel;html=1;align=center;verticalAlign=middle;resizable=0;points=[];" vertex="1" connectable="0" parent="iU-VrpvZsyPDX8SjkyYA-23">
          <mxGeometry x="0.0094" y="-1" relative="1" as="geometry">
            <mxPoint as="offset" />
          </mxGeometry>
        </mxCell>
        <mxCell id="iU-VrpvZsyPDX8SjkyYA-25" value="" style="endArrow=classic;html=1;rounded=0;exitX=0.5;exitY=1;exitDx=0;exitDy=0;entryX=0.5;entryY=0;entryDx=0;entryDy=0;" edge="1" parent="WIyWlLk6GJQsqaUBKTNV-1" target="iU-VrpvZsyPDX8SjkyYA-13">
          <mxGeometry width="50" height="50" relative="1" as="geometry">
            <mxPoint x="279.73" y="290" as="sourcePoint" />
            <mxPoint x="280.07" y="340" as="targetPoint" />
          </mxGeometry>
        </mxCell>
        <mxCell id="iU-VrpvZsyPDX8SjkyYA-27" value="" style="endArrow=classic;html=1;rounded=0;exitX=0.5;exitY=1;exitDx=0;exitDy=0;entryX=1;entryY=0.5;entryDx=0;entryDy=0;" edge="1" parent="WIyWlLk6GJQsqaUBKTNV-1" target="iU-VrpvZsyPDX8SjkyYA-14">
          <mxGeometry width="50" height="50" relative="1" as="geometry">
            <mxPoint x="240.00000000000003" y="385" as="sourcePoint" />
            <mxPoint x="240.27" y="440" as="targetPoint" />
          </mxGeometry>
        </mxCell>
        <mxCell id="iU-VrpvZsyPDX8SjkyYA-28" value="No" style="edgeLabel;html=1;align=center;verticalAlign=middle;resizable=0;points=[];" vertex="1" connectable="0" parent="iU-VrpvZsyPDX8SjkyYA-27">
          <mxGeometry x="-0.2568" relative="1" as="geometry">
            <mxPoint as="offset" />
          </mxGeometry>
        </mxCell>
        <mxCell id="iU-VrpvZsyPDX8SjkyYA-30" value="" style="endArrow=classic;html=1;rounded=0;exitX=1;exitY=0.5;exitDx=0;exitDy=0;entryX=0;entryY=0.5;entryDx=0;entryDy=0;" edge="1" parent="WIyWlLk6GJQsqaUBKTNV-1" source="iU-VrpvZsyPDX8SjkyYA-13" target="iU-VrpvZsyPDX8SjkyYA-18">
          <mxGeometry width="50" height="50" relative="1" as="geometry">
            <mxPoint x="250.00000000000003" y="395" as="sourcePoint" />
            <mxPoint x="220" y="395" as="targetPoint" />
          </mxGeometry>
        </mxCell>
        <mxCell id="iU-VrpvZsyPDX8SjkyYA-31" value="Yes" style="edgeLabel;html=1;align=center;verticalAlign=middle;resizable=0;points=[];" vertex="1" connectable="0" parent="iU-VrpvZsyPDX8SjkyYA-30">
          <mxGeometry x="-0.2568" relative="1" as="geometry">
            <mxPoint as="offset" />
          </mxGeometry>
        </mxCell>
        <mxCell id="iU-VrpvZsyPDX8SjkyYA-35" value="" style="rounded=0;whiteSpace=wrap;html=1;" vertex="1" parent="WIyWlLk6GJQsqaUBKTNV-1">
          <mxGeometry x="52.5" y="530" width="455" height="195" as="geometry" />
        </mxCell>
        <mxCell id="iU-VrpvZsyPDX8SjkyYA-36" value="" style="endArrow=classic;html=1;rounded=0;exitX=0.5;exitY=1;exitDx=0;exitDy=0;entryX=0.5;entryY=0;entryDx=0;entryDy=0;" edge="1" parent="WIyWlLk6GJQsqaUBKTNV-1">
          <mxGeometry width="50" height="50" relative="1" as="geometry">
            <mxPoint x="279.73" y="482.5" as="sourcePoint" />
            <mxPoint x="279.73" y="530.5" as="targetPoint" />
          </mxGeometry>
        </mxCell>
        <mxCell id="iU-VrpvZsyPDX8SjkyYA-37" value="makePeperoBar" style="edgeLabel;html=1;align=center;verticalAlign=middle;resizable=0;points=[];" vertex="1" connectable="0" parent="iU-VrpvZsyPDX8SjkyYA-36">
          <mxGeometry x="0.0094" y="-1" relative="1" as="geometry">
            <mxPoint as="offset" />
          </mxGeometry>
        </mxCell>
        <mxCell id="iU-VrpvZsyPDX8SjkyYA-39" value="" style="endArrow=classic;html=1;rounded=0;exitX=0.5;exitY=1;exitDx=0;exitDy=0;entryX=0.5;entryY=1;entryDx=0;entryDy=0;" edge="1" parent="WIyWlLk6GJQsqaUBKTNV-1" source="iU-VrpvZsyPDX8SjkyYA-14" target="iU-VrpvZsyPDX8SjkyYA-6">
          <mxGeometry width="50" height="50" relative="1" as="geometry">
            <mxPoint x="250" y="520" as="sourcePoint" />
            <mxPoint x="300" y="470" as="targetPoint" />
          </mxGeometry>
        </mxCell>
        <mxCell id="iU-VrpvZsyPDX8SjkyYA-40" value="" style="endArrow=classic;html=1;rounded=0;exitX=0.5;exitY=1;exitDx=0;exitDy=0;entryX=0.5;entryY=1;entryDx=0;entryDy=0;" edge="1" parent="WIyWlLk6GJQsqaUBKTNV-1" source="iU-VrpvZsyPDX8SjkyYA-18" target="iU-VrpvZsyPDX8SjkyYA-6">
          <mxGeometry width="50" height="50" relative="1" as="geometry">
            <mxPoint x="150" y="450" as="sourcePoint" />
            <mxPoint x="290" y="493" as="targetPoint" />
          </mxGeometry>
        </mxCell>
        <mxCell id="iU-VrpvZsyPDX8SjkyYA-41" value="&lt;font style=&quot;font-size: 7px;&quot;&gt;몸통+(토핑x2) 갯수가&amp;nbsp;&lt;/font&gt;&lt;div&gt;&lt;font style=&quot;font-size: 7px;&quot;&gt;짝수인가 홀수인가&lt;/font&gt;&lt;/div&gt;" style="rhombus;whiteSpace=wrap;html=1;" vertex="1" parent="WIyWlLk6GJQsqaUBKTNV-1">
          <mxGeometry x="240" y="585" width="80" height="80" as="geometry" />
        </mxCell>
        <mxCell id="iU-VrpvZsyPDX8SjkyYA-42" value="" style="endArrow=classic;html=1;rounded=0;exitX=0.5;exitY=1;exitDx=0;exitDy=0;entryX=0.5;entryY=0;entryDx=0;entryDy=0;" edge="1" parent="WIyWlLk6GJQsqaUBKTNV-1">
          <mxGeometry width="50" height="50" relative="1" as="geometry">
            <mxPoint x="279.62" y="530" as="sourcePoint" />
            <mxPoint x="279.89" y="585" as="targetPoint" />
          </mxGeometry>
        </mxCell>
        <mxCell id="iU-VrpvZsyPDX8SjkyYA-43" value="1 to 막대 길이" style="swimlane;whiteSpace=wrap;html=1;" vertex="1" parent="WIyWlLk6GJQsqaUBKTNV-1">
          <mxGeometry x="70" y="572.5" width="140" height="110" as="geometry" />
        </mxCell>
        <mxCell id="iU-VrpvZsyPDX8SjkyYA-44" value="1 to 막대 길이" style="swimlane;whiteSpace=wrap;html=1;" vertex="1" parent="WIyWlLk6GJQsqaUBKTNV-1">
          <mxGeometry x="355" y="570" width="140" height="110" as="geometry" />
        </mxCell>
        <mxCell id="iU-VrpvZsyPDX8SjkyYA-45" value="" style="endArrow=classic;html=1;rounded=0;exitX=0.5;exitY=1;exitDx=0;exitDy=0;entryX=1;entryY=0.5;entryDx=0;entryDy=0;" edge="1" parent="WIyWlLk6GJQsqaUBKTNV-1">
          <mxGeometry width="50" height="50" relative="1" as="geometry">
            <mxPoint x="240.00000000000003" y="624.78" as="sourcePoint" />
            <mxPoint x="210" y="624.78" as="targetPoint" />
          </mxGeometry>
        </mxCell>
        <mxCell id="iU-VrpvZsyPDX8SjkyYA-46" value="짝수" style="edgeLabel;html=1;align=center;verticalAlign=middle;resizable=0;points=[];" vertex="1" connectable="0" parent="iU-VrpvZsyPDX8SjkyYA-45">
          <mxGeometry x="-0.2568" relative="1" as="geometry">
            <mxPoint as="offset" />
          </mxGeometry>
        </mxCell>
        <mxCell id="iU-VrpvZsyPDX8SjkyYA-47" value="" style="endArrow=classic;html=1;rounded=0;exitX=1;exitY=0.5;exitDx=0;exitDy=0;entryX=0;entryY=0.5;entryDx=0;entryDy=0;" edge="1" parent="WIyWlLk6GJQsqaUBKTNV-1">
          <mxGeometry width="50" height="50" relative="1" as="geometry">
            <mxPoint x="320" y="624.78" as="sourcePoint" />
            <mxPoint x="355" y="624.78" as="targetPoint" />
          </mxGeometry>
        </mxCell>
        <mxCell id="iU-VrpvZsyPDX8SjkyYA-48" value="홀수" style="edgeLabel;html=1;align=center;verticalAlign=middle;resizable=0;points=[];" vertex="1" connectable="0" parent="iU-VrpvZsyPDX8SjkyYA-47">
          <mxGeometry x="-0.2568" relative="1" as="geometry">
            <mxPoint as="offset" />
          </mxGeometry>
        </mxCell>
        <mxCell id="iU-VrpvZsyPDX8SjkyYA-49" value="&lt;div&gt;&lt;span style=&quot;font-size: 8px;&quot;&gt;몸통+(토핑x2)에 따라&amp;nbsp;&amp;nbsp;&lt;/span&gt;&lt;/div&gt;&lt;font style=&quot;font-size: 8px;&quot;&gt;&quot;||&quot; 출력&lt;/font&gt;" style="shape=parallelogram;perimeter=parallelogramPerimeter;whiteSpace=wrap;html=1;fixedSize=1;" vertex="1" parent="WIyWlLk6GJQsqaUBKTNV-1">
          <mxGeometry x="75" y="610" width="130" height="45" as="geometry" />
        </mxCell>
        <mxCell id="iU-VrpvZsyPDX8SjkyYA-50" value="&lt;font style=&quot;font-size: 8px;&quot;&gt;몸통+(토핑x2)에 따라&lt;/font&gt;&lt;div&gt;&lt;font style=&quot;font-size: 8px;&quot;&gt;&quot;| |&quot; 출력&lt;/font&gt;&lt;/div&gt;" style="shape=parallelogram;perimeter=parallelogramPerimeter;whiteSpace=wrap;html=1;fixedSize=1;" vertex="1" parent="WIyWlLk6GJQsqaUBKTNV-1">
          <mxGeometry x="360" y="605" width="130" height="45" as="geometry" />
        </mxCell>
        <mxCell id="iU-VrpvZsyPDX8SjkyYA-54" value="끝" style="ellipse;whiteSpace=wrap;html=1;" vertex="1" parent="WIyWlLk6GJQsqaUBKTNV-1">
          <mxGeometry x="220" y="770" width="120" height="80" as="geometry" />
        </mxCell>
        <mxCell id="iU-VrpvZsyPDX8SjkyYA-55" value="" style="endArrow=classic;html=1;rounded=0;exitX=0.5;exitY=1;exitDx=0;exitDy=0;" edge="1" parent="WIyWlLk6GJQsqaUBKTNV-1">
          <mxGeometry width="50" height="50" relative="1" as="geometry">
            <mxPoint x="279.7" y="725" as="sourcePoint" />
            <mxPoint x="279.7" y="765" as="targetPoint" />
          </mxGeometry>
        </mxCell>
      </root>
    </mxGraphModel>
  </diagram>
</mxfile>
